# Blender 4.0.2
# www.blender.org
mtllib Walls.mtl
o Cube
v 1.000000 0.131058 -0.007695
v 1.000000 0.031058 -0.000110
v 1.000000 0.131058 0.988798
v 1.000000 0.031058 0.996383
v 0.000000 0.279372 -0.007696
v 0.000000 0.031058 -0.000110
v 0.000000 0.131058 0.988798
v 0.000000 0.031058 0.996383
vn -0.0000 1.0000 -0.0000
vn -0.0000 0.0756 0.9971
vn -1.0000 -0.0000 -0.0000
vn -0.0000 -1.0000 -0.0000
vn 1.0000 -0.0000 -0.0000
vn -0.0000 -0.0756 -0.9971
vn 0.1451 0.9786 0.1457
vn -0.0045 -0.0305 -0.9995
vt 0.625000 0.500000
vt 0.875000 0.750000
vt 0.625000 0.750000
vt 0.375000 1.000000
vt 0.375000 0.750000
vt 0.625000 0.000000
vt 0.375000 0.250000
vt 0.375000 0.000000
vt 0.375000 0.500000
vt 0.125000 0.750000
vt 0.125000 0.500000
vt 0.875000 0.500000
vt 0.625000 1.000000
vt 0.625000 0.250000
s 0
usemtl Material
f 1/1/1 7/2/1 3/3/1
f 3/3/2 8/4/2 4/5/2
f 7/6/3 6/7/3 8/8/3
f 2/9/4 8/10/4 6/11/4
f 2/9/5 3/3/5 4/5/5
f 6/7/6 1/1/6 2/9/6
f 1/1/7 5/12/7 7/2/7
f 3/3/2 7/13/2 8/4/2
f 7/6/3 5/14/3 6/7/3
f 2/9/4 4/5/4 8/10/4
f 2/9/5 1/1/5 3/3/5
f 6/7/8 5/14/8 1/1/8
